<?xml version="1.0" standalone="no"?>
<!DOCTYPE svg PUBLIC "-//W3C//DTD SVG 20010904//EN"
 "http://www.w3.org/TR/2001/REC-SVG-20010904/DTD/svg10.dtd">
<svg version="1.0" xmlns="http://www.w3.org/2000/svg"
 width="484.000000pt" height="484.000000pt" viewBox="0 0 484.000000 484.000000"
 preserveAspectRatio="xMidYMid meet">
<metadata>
Created by potrace 1.11, written by Peter Selinger 2001-2013
</metadata>
<g transform="translate(0.000000,484.000000) scale(0.100000,-0.100000)"
fill="#000000" stroke="none">
<path d="M2205 4829 c-38 -3 -90 -10 -115 -13 -25 -4 -61 -9 -80 -12 -60 -8
-230 -51 -335 -84 -515 -166 -974 -517 -1274 -975 -82 -127 -82 -126 -143
-248 -92 -184 -190 -475 -213 -632 -7 -48 -13 -90 -20 -130 -18 -98 -24 -368
-11 -515 65 -797 529 -1515 1231 -1907 196 -109 461 -213 615 -240 14 -2 41
-8 60 -13 62 -16 149 -29 305 -45 55 -6 327 -6 395 0 343 30 693 138 985 303
547 312 954 822 1132 1422 24 83 66 274 77 355 24 175 25 478 1 640 -2 17 -6
46 -9 65 -3 19 -12 69 -21 110 -9 41 -18 83 -20 92 -13 62 -54 190 -92 288
-242 629 -738 1129 -1368 1380 -122 48 -316 105 -430 125 -201 36 -498 51
-670 34z"/>
</g>
</svg>
